<svg id="Layer_1" data-name="Layer 1" xmlns="http://www.w3.org/2000/svg" viewBox="0 0 900 900"><defs><style>.cls-1{fill:#fff;}</style></defs><rect width="900" height="900" rx="150"/><rect x="44.01" y="44.01" width="811.98" height="811.98" rx="86.89"/><path class="cls-1" d="M548.8,254.9l231,138.62a6.46,6.46,0,0,1,3.12,5.52v81.59a6.42,6.42,0,0,1-9.78,5.49l-231-139.29a6.42,6.42,0,0,1-3.11-5.5V260.41a6.43,6.43,0,0,1,9.74-5.51Z" transform="translate(-90 -90)"/><path class="cls-1" d="M777.91,635.79,307,350.86a6.51,6.51,0,0,0-9.89,5.57v80.71a6.54,6.54,0,0,0,3.11,5.54L771.13,729a6.52,6.52,0,0,0,9.9-5.57V641.36A6.52,6.52,0,0,0,777.91,635.79Z" transform="translate(-90 -90)"/><path class="cls-1" d="M314.37,597.44,541.56,733.21a6.48,6.48,0,0,1,3.15,5.55v80.81a6.47,6.47,0,0,1-6.47,6.46,6.53,6.53,0,0,1-3.34-.92L307.72,688a6.45,6.45,0,0,1-3.13-5.54V603a6.46,6.46,0,0,1,9.78-5.54Z" transform="translate(-90 -90)"/></svg>